<?xml version="1.0" standalone="no"?>
<!DOCTYPE svg PUBLIC "-//W3C//DTD SVG 20010904//EN"
 "http://www.w3.org/TR/2001/REC-SVG-20010904/DTD/svg10.dtd">
<svg version="1.0" xmlns="http://www.w3.org/2000/svg"
 width="76.000000pt" height="76.000000pt" viewBox="0 0 76.000000 76.000000"
 preserveAspectRatio="xMidYMid meet">
<metadata>
Created by potrace 1.11, written by Peter Selinger 2001-2013
</metadata>
<g transform="translate(0.000000,76.000000) scale(0.100000,-0.100000)"
fill="#000000" stroke="none">
<path d="M66 633 l2 -58 56 -3 56 -3 0 61 0 60 -57 0 -58 0 1 -57z"/>
<path d="M570 630 l0 -60 60 0 60 0 0 60 0 60 -60 0 -60 0 0 -60z"/>
<path d="M320 380 l0 -60 60 0 60 0 0 60 0 60 -60 0 -60 0 0 -60z"/>
<path d="M67 173 c-2 -5 -3 -30 -2 -58 l2 -50 56 -3 57 -3 0 61 0 60 -54 0
c-30 0 -56 -3 -59 -7z"/>
<path d="M570 120 l0 -60 60 0 60 0 0 60 0 60 -60 0 -60 0 0 -60z"/>
</g>
</svg>
